<svg width="1197" height="230" viewBox="0 0 1197 230" fill="none" xmlns="http://www.w3.org/2000/svg">
<path fill-rule="evenodd" clip-rule="evenodd" d="M627.152 226.249V3.76367H663.489V196.62H762.498V226.249H627.152V226.249Z" fill="white"/>
<path fill-rule="evenodd" clip-rule="evenodd" d="M418.215 3.76367H560.101V34.0176H454.551V98.9385H550.759V128.568H454.551V195.995H560.101V226.249H418.215V3.76367Z" fill="white"/>
<path fill-rule="evenodd" clip-rule="evenodd" d="M198.84 34.0215V3.76758H363.765V34.0215H299.627V226.253H263.29V34.0215H198.84Z" fill="white"/>
<path fill-rule="evenodd" clip-rule="evenodd" d="M150.991 133.539C145.862 125.162 138.918 118.401 130.183 113.26C121.561 108.185 111.803 103.863 100.92 100.283C89.7211 96.3197 79.7585 92.8768 71.0366 89.9542C62.4646 86.8734 55.8368 83.1141 51.07 78.7177C46.5154 74.5212 44.1341 68.443 44.1341 60.2165C44.1341 51.0533 47.2773 44.0425 53.4763 38.9717C59.9667 33.8343 68.1807 31.3114 78.2431 31.5112H78.2764C86.1449 31.5112 92.6811 33.1349 97.9725 36.2864C103.347 39.4921 107.386 43.5637 110.137 48.5012L110.146 48.5137L110.154 48.5262C112.918 53.2889 114.288 58.3264 114.288 63.6595V65.3247H152.519L152.49 63.6303C152.277 51.045 149.092 39.9833 142.881 30.5037C136.686 20.8368 128.039 13.3389 116.994 7.9975C106.141 2.64779 93.5304 0 79.2132 0C64.8959 0 51.8776 2.64363 40.8202 7.98918C29.9792 13.1182 21.4363 20.4122 15.2373 29.8668L15.229 29.8793L15.2206 29.8918C9.21313 39.3838 6.34471 50.4538 6.55704 63.0433C6.55704 77.9808 10.816 90.1998 19.4546 99.5379L19.4629 99.5462L19.4713 99.5545C28.2307 108.793 41.1657 116.216 58.1307 121.903C66.6445 124.825 74.7461 127.54 82.4355 130.05C90.0416 132.531 96.6902 135.312 102.398 138.385H102.41L102.423 138.397C108.243 141.424 112.689 145.221 115.833 149.763L115.845 149.783L115.858 149.804C119.122 154.246 120.828 160.129 120.828 167.602C120.828 176.719 117.406 184.188 110.512 190.133C103.851 195.845 94.4255 198.809 82.0192 198.809C68.0225 198.809 57.398 194.842 49.9001 187.107C42.3147 179.28 38.4263 169.775 38.2265 158.493L38.1973 156.857H0L0.0249528 158.547C0.237276 173.206 3.72606 185.937 10.562 196.674L10.5704 196.682L10.5787 196.69C17.6103 207.402 27.2981 215.633 39.5962 221.39C51.8943 227.148 66.1574 230 82.3356 230C98.5138 230 113.01 227.044 124.517 221.045H124.53L124.542 221.032C135.97 214.863 144.617 206.944 150.4 197.252V197.244L150.408 197.236C156.162 187.381 159.042 176.761 159.042 165.4C159.042 152.66 156.403 141.998 151.007 133.522L150.991 133.539Z" fill="white"/>
<path fill-rule="evenodd" clip-rule="evenodd" d="M1039.15 3.76367H1115.86C1133.25 3.76367 1147.66 6.71121 1158.97 12.7229C1170.44 18.7012 1179 26.8569 1184.57 37.1941C1190.11 47.2691 1192.87 58.5014 1192.87 70.8619C1192.87 84.742 1189.15 97.3732 1181.7 108.71C1174.69 119.7 1163.85 127.635 1149.34 132.577L1196.07 226.245H1154.04L1111.69 137.956H1075.48V226.245H1039.15V3.76367V3.76367ZM1145.47 99.1425L1145.48 99.1342C1152.19 92.1858 1155.6 83.1267 1155.6 71.8028C1155.6 60.4789 1152.29 51.6279 1145.81 45.1125L1145.8 45.1042L1145.79 45.0959C1139.39 38.4681 1128.83 34.9585 1113.67 34.9585H1075.48V109.584H1113.99C1128.7 109.584 1139.06 105.987 1145.46 99.1508L1145.47 99.1425V99.1425Z" fill="white"/>
<path fill-rule="evenodd" clip-rule="evenodd" d="M919.687 3.76367H873.942L803.621 226.266H839.183L896.793 43.9843L954.146 226.266H989.691L919.683 3.76367H919.687Z" fill="white"/>
</svg>
