<svg width="214" height="60" viewBox="0 0 214 60" fill="none" xmlns="http://www.w3.org/2000/svg">
<path fill-rule="evenodd" clip-rule="evenodd" d="M147.445 42.7836V17.0767H151.645V39.3586H163.084V42.7836H147.445Z" fill="white"/>
<path fill-rule="evenodd" clip-rule="evenodd" d="M123.306 17.0767H139.7V20.5738H127.5V28.0733H138.617V31.4983H127.5V39.2912H139.695V42.7884H123.301V17.0767H123.306Z" fill="white"/>
<path fill-rule="evenodd" clip-rule="evenodd" d="M97.9531 20.5738V17.0767H117.012V20.5738H109.599V42.7836H105.4V20.5738H97.9531Z" fill="white"/>
<path fill-rule="evenodd" clip-rule="evenodd" d="M92.4276 32.0709C91.8359 31.104 91.0326 30.3199 90.0224 29.7283C89.0266 29.1414 87.901 28.6411 86.6407 28.2274C85.3467 27.7704 84.197 27.3712 83.1868 27.0344C82.1958 26.6785 81.431 26.2455 80.8778 25.7356C80.3534 25.2498 80.0744 24.5474 80.0744 23.5998C80.0744 22.5415 80.4352 21.7285 81.152 21.1465C81.9024 20.5548 82.85 20.2613 84.0142 20.2854C84.9233 20.2854 85.6786 20.473 86.2895 20.8386C86.91 21.209 87.3767 21.6804 87.6941 22.248C88.0116 22.7964 88.1704 23.3785 88.1704 23.9942V24.1866H92.5863L92.5815 23.9894C92.5575 22.5367 92.1871 21.2571 91.4703 20.1603C90.7536 19.0443 89.753 18.1784 88.4782 17.5579C87.2227 16.9421 85.7652 16.6343 84.1104 16.6343C82.4315 16.6343 80.9499 16.9421 79.6752 17.5579C78.4244 18.1496 77.4335 18.9914 76.7215 20.0882C76.0288 21.1849 75.6969 22.4645 75.721 23.9173C75.721 25.6442 76.2117 27.0537 77.2122 28.136C78.2224 29.2039 79.7184 30.0602 81.6811 30.7192C82.6672 31.0559 83.6005 31.3686 84.4904 31.6621C85.3707 31.9507 86.1356 32.2682 86.7994 32.6241C87.4729 32.9753 87.9876 33.4131 88.3484 33.9374C88.7236 34.4521 88.9208 35.1304 88.9208 35.9963C88.9208 37.0497 88.5263 37.9108 87.7278 38.5987C86.9581 39.2577 85.871 39.5993 84.4375 39.5993C82.8212 39.5993 81.5945 39.1423 80.7238 38.2475C79.8483 37.3432 79.3962 36.2464 79.3769 34.9428L79.3721 34.7552H74.9609L74.9657 34.9524C74.9898 36.6457 75.3939 38.1177 76.1828 39.3587C76.9957 40.595 78.1166 41.5475 79.5356 42.2113C80.9547 42.8752 82.6047 43.2071 84.476 43.2071C86.3905 43.2071 88.0212 42.8655 89.3489 42.1728C90.6718 41.4609 91.6676 40.5469 92.3362 39.4261C93 38.286 93.332 37.0594 93.332 35.7461C93.356 34.2837 93.053 33.0523 92.4276 32.0709Z" fill="white"/>
<path fill-rule="evenodd" clip-rule="evenodd" d="M195.052 17.0767H203.912C205.923 17.0767 207.588 17.4182 208.896 18.1109C210.219 18.8036 211.21 19.7416 211.855 20.9394C212.494 22.1036 212.812 23.4024 212.812 24.8311C212.812 26.4329 212.384 27.8953 211.523 29.2038C210.714 30.4737 209.459 31.3925 207.785 31.9601L213.182 42.7836H208.324L203.431 32.5807H199.246V42.7836H195.047L195.052 17.0767ZM207.333 28.0974C208.107 27.294 208.502 26.2453 208.502 24.9369C208.502 23.6285 208.122 22.6038 207.371 21.8534C206.63 21.0886 205.409 20.6845 203.662 20.6845H199.251V29.3096H203.701C205.394 29.3048 206.592 28.8911 207.333 28.0974Z" fill="white"/>
<path fill-rule="evenodd" clip-rule="evenodd" d="M181.247 17.0767H175.961L167.836 42.7884H171.944L178.602 21.7235L185.23 42.7836H189.339L181.247 17.0767Z" fill="white"/>
<path d="M4.23799 47.0126C6.57856 47.0126 8.47598 45.1152 8.47598 42.7746C8.47598 40.434 6.57856 38.5366 4.23799 38.5366C1.89741 38.5366 0 40.434 0 42.7746C0 45.1152 1.89741 47.0126 4.23799 47.0126Z" fill="#FF912B"/>
<path d="M4.23799 21.3192C6.57856 21.3192 8.47598 19.4218 8.47598 17.0812C8.47598 14.7407 6.57856 12.8433 4.23799 12.8433C1.89741 12.8433 0 14.7407 0 17.0812C0 19.4218 1.89741 21.3192 4.23799 21.3192Z" fill="#FF912B"/>
<path d="M49.2419 47.0165C51.5825 47.0165 53.4799 45.1191 53.4799 42.7785C53.4799 40.4379 51.5825 38.5405 49.2419 38.5405C46.9013 38.5405 45.0039 40.4379 45.0039 42.7785C45.0039 45.1191 46.9013 47.0165 49.2419 47.0165Z" fill="#FF912B"/>
<path d="M49.2419 21.3246C51.5825 21.3246 53.4799 19.4272 53.4799 17.0866C53.4799 14.746 51.5825 12.8486 49.2419 12.8486C46.9013 12.8486 45.0039 14.746 45.0039 17.0866C45.0039 19.4272 46.9013 21.3246 49.2419 21.3246Z" fill="#FF912B"/>
<path d="M26.7341 34.1732C29.0747 34.1732 30.9721 32.2758 30.9721 29.9353C30.9721 27.5947 29.0747 25.6973 26.7341 25.6973C24.3935 25.6973 22.4961 27.5947 22.4961 29.9353C22.4961 32.2758 24.3935 34.1732 26.7341 34.1732Z" fill="#FF912B"/>
<path d="M26.7341 8.47597C29.0747 8.47597 30.9721 6.57856 30.9721 4.23799C30.9721 1.89741 29.0747 0 26.7341 0C24.3935 0 22.4961 1.89741 22.4961 4.23799C22.4961 6.57856 24.3935 8.47597 26.7341 8.47597Z" fill="#FF912B"/>
<path d="M26.7419 59.8612C29.0825 59.8612 30.9799 57.9638 30.9799 55.6232C30.9799 53.2827 29.0825 51.3853 26.7419 51.3853C24.4013 51.3853 22.5039 53.2827 22.5039 55.6232C22.5039 57.9638 24.4013 59.8612 26.7419 59.8612Z" fill="#FF912B"/>
</svg>
