<svg width="143" height="114" viewBox="0 0 143 114" fill="none" xmlns="http://www.w3.org/2000/svg">
<path d="M115.545 3.63384C86.2864 -1.21128 56.4277 -1.21128 27.1695 3.63384C10.4389 7.1253 0 17.8831 0 31.9201V81.7942C0 96.0447 10.4389 106.661 27.4569 110.294L27.4557 110.295C42.0101 112.737 56.7415 113.976 71.4992 114C86.3036 113.996 101.082 112.781 115.687 110.366C132.275 107.231 143 96.1152 143 81.866V31.9918C143 17.8128 132.275 6.69716 115.544 3.63411L115.545 3.63384ZM94.8089 60.2075L59.0575 81.5826C58.4985 81.9226 57.8533 82.0955 57.1985 82.0812C56.5785 82.0764 55.9668 81.9297 55.4114 81.6542C54.2671 80.9612 53.5836 79.7099 53.6243 78.3765V35.6263C53.6351 34.3429 54.3114 33.1572 55.4114 32.4915C56.5497 31.8832 57.9191 31.8832 59.0573 32.4915L94.8088 53.8666C95.8586 54.5334 96.4942 55.6892 96.4942 56.9296C96.4942 58.1713 95.8586 59.326 94.8088 59.9939L94.8089 60.2075Z" fill="#191731"/>
</svg>
