<svg width="18" height="18" viewBox="0 0 18 18" fill="none" xmlns="http://www.w3.org/2000/svg">
<path fill-rule="evenodd" clip-rule="evenodd" d="M15.339 15.338H12.67V11.16C12.67 10.164 12.652 8.883 11.282 8.883C9.893 8.883 9.681 9.968 9.681 11.089V15.338H7.015V6.748H9.574V7.922H9.61C9.966 7.247 10.838 6.535 12.137 6.535C14.84 6.535 15.339 8.314 15.339 10.627V15.338ZM4.004 5.574C3.147 5.574 2.456 4.881 2.456 4.025C2.456 3.171 3.147 2.478 4.004 2.478C4.858 2.478 5.552 3.171 5.552 4.025C5.552 4.881 4.858 5.574 4.004 5.574ZM2.668 15.338H5.34V6.748H2.668V15.338ZM16.669 0H1.328C0.596 0 0 0.581 0 1.297V16.701C0 17.418 0.596 18 1.328 18H16.669C17.403 18 18 17.418 18 16.701V1.297C18 0.581 17.403 0 16.669 0Z" fill="#191731"/>
</svg>
